<svg id="Layer_1" data-name="Layer 1" xmlns="http://www.w3.org/2000/svg" viewBox="0 0 306.24 317.16"><defs><style>.cls-1{fill:#fff;stroke:#231f20;stroke-miterlimit:10;}</style></defs><title>bugControl</title><path class="cls-1" d="M288.58,331.56a1.37,1.37,0,0,1-.15-1.7,16.14,16.14,0,0,1,13.51-7.27h5.65a1.45,1.45,0,0,0,0-2.9c-5.4,0-15.19-1.12-21.58,8.57a1.08,1.08,0,0,1-1.39.37,13.6,13.6,0,0,0-12.46,0,1.07,1.07,0,0,1-1.38-.37c-6.09-9.22-14.95-8.57-21.58-8.57a1.45,1.45,0,0,0,0,2.9h5.65c8.91,0,14.84,7.41,13.36,9-3.2,3.37-3.87,6.79-3.87,10.9a25.52,25.52,0,0,1,28.11,0C292.45,338.41,291.82,335,288.58,331.56Z" transform="translate(-148.03 -235.52)"/><path class="cls-1" d="M257.87,348.56c-8.83-8-7.44-7.63-22-2.84a2.18,2.18,0,0,0,1.36,4.14l9.09-3a4.33,4.33,0,0,1,4.27.91c9.67,8.79,5.8,5,5.17,14.35a2.71,2.71,0,0,1-2.7,2.52h-12.7a2.18,2.18,0,0,0,0,4.35c20,0,13.41-1.66,16.77,9.83A.92.92,0,0,1,256,380c-8.07-1.62-10.3,6.13-14.73,14.47a2.17,2.17,0,0,0,3.84,2l5.33-10c2.14-4,8.39-2.24,10.78,1.56,1.82,2.9,7.7,10.79,12.08,12.56a2.63,2.63,0,0,0,3.61-2.44v-49.2a6,6,0,0,0-8.69-5.39C261.75,346.8,260.91,351.32,257.87,348.56Z" transform="translate(-148.03 -235.52)"/><path class="cls-1" d="M321,345.72c-13.93-4.57-12.85-5.52-22,2.84a2.76,2.76,0,0,1-3.89-.16c-9.11-9.77-15.18-4.24-15.18.54v49.2c0,3.08,4.25,4.08,8.7-1.24,3.77-4.52,5.22-6,7-8.88,2.43-3.87,8.69-5.46,10.77-1.56l5.34,10a2.17,2.17,0,0,0,3.84-2l-5.34-10a8.76,8.76,0,0,0-9.39-4.43.92.92,0,0,1-1.06-1.16C303,367.44,297,369,316.47,369a2.18,2.18,0,1,0,0-4.35H303.74a2.72,2.72,0,0,1-2.7-2.46c-.5-5.75-2.54-7.37.21-9.87,8.17-7.43,5.32-6.74,18.35-2.46A2.18,2.18,0,0,0,321,345.72Z" transform="translate(-148.03 -235.52)"/><path class="cls-1" d="M449.12,524l-75.24-78.26a127.85,127.85,0,1,0-24.57,22.49l75.82,78.86a16.65,16.65,0,1,0,24-23.09ZM276.18,269.32a94.35,94.35,0,1,1-94.35,94.35A94.46,94.46,0,0,1,276.18,269.32Z" transform="translate(-148.03 -235.52)"/></svg>