<svg xmlns="http://www.w3.org/2000/svg" width="141" height="111" viewBox="0 0 141 111">
  <defs>
    <style>
      .cls-1, .cls-3 {
        fill: #373449;
      }

      .cls-1, .cls-4 {
        opacity: 0.3;
      }

      .cls-2, .cls-5 {
        fill: none;
        stroke: #373449;
        stroke-linecap: round;
      }

      .cls-2 {
        stroke-linejoin: round;
        stroke-miterlimit: 10;
      }

      .cls-4 {
        fill: #5bdadd;
      }
    </style>
  </defs>
  <g id="Design" transform="translate(-3.141 -21.585)">
    <rect id="Rectangle_4" data-name="Rectangle 4" class="cls-1" width="21.622" height="5.352" transform="translate(48.268 110.671)"/>
    <path id="Path_5" data-name="Path 5" class="cls-2" d="M94.352,110.768H16.041a12.685,12.685,0,0,1-12.4-12.881V34.966a12.685,12.685,0,0,1,12.4-12.881H102.3a12.685,12.685,0,0,1,12.4,12.881V59.073" transform="translate(0 0)"/>
    <path id="Path_6" data-name="Path 6" class="cls-2" d="M94.184,91.9H15.954a6.814,6.814,0,0,1-6.661-6.92V34.918A6.815,6.815,0,0,1,15.955,28h86.1a6.814,6.814,0,0,1,6.661,6.92V58.1" transform="translate(0.168 0.412)"/>
    <path id="Path_7" data-name="Path 7" class="cls-3" d="M9.292,37.113v-2.2A6.815,6.815,0,0,1,15.954,28h86.1a6.814,6.814,0,0,1,6.661,6.92v2.2Z" transform="translate(0.168 0.412)"/>
    <path id="Path_8" data-name="Path 8" class="cls-2" d="M9.292,37.113v-2.2A6.815,6.815,0,0,1,15.954,28h86.1a6.814,6.814,0,0,1,6.661,6.92v2.2Z" transform="translate(0.168 0.412)"/>
    <ellipse id="Ellipse_1" data-name="Ellipse 1" class="cls-1" cx="3.712" cy="3.856" rx="3.712" ry="3.856" transform="translate(55.48 97.981)"/>
    <ellipse id="Ellipse_2" data-name="Ellipse 2" class="cls-2" cx="3.712" cy="3.856" rx="3.712" ry="3.856" transform="translate(55.48 97.981)"/>
    <path id="Path_9" data-name="Path 9" class="cls-2" d="M68.96,105.247S67,118.413,76.65,118.413H39.557c9.65,0,7.539-13.029,7.539-13.029" transform="translate(1.086 5.836)"/>
    <rect id="Rectangle_5" data-name="Rectangle 5" class="cls-2" width="37.024" height="14.37" transform="translate(16.922 44.389)"/>
    <g id="Group_2" data-name="Group 2" transform="translate(60.015 46.131)">
      <line id="Line_1" data-name="Line 1" class="cls-2" x2="30.892" transform="translate(0 0)"/>
      <line id="Line_2" data-name="Line 2" class="cls-2" x2="36.041" transform="translate(0 6.418)"/>
      <line id="Line_3" data-name="Line 3" class="cls-2" x2="30.892" transform="translate(0 10.697)"/>
    </g>
    <rect id="Rectangle_6" data-name="Rectangle 6" class="cls-4" width="18.513" height="19.231" transform="translate(16.922 66.695)"/>
    <rect id="Rectangle_7" data-name="Rectangle 7" class="cls-2" width="18.513" height="19.231" transform="translate(16.922 66.695)"/>
    <rect id="Rectangle_8" data-name="Rectangle 8" class="cls-2" width="18.513" height="19.231" transform="translate(42.163 66.695)"/>
    <rect id="Rectangle_9" data-name="Rectangle 9" class="cls-2" width="18.513" height="19.231" transform="translate(67.399 66.695)"/>
    <path id="Path_10" data-name="Path 10" class="cls-2" d="M136,129.635H96.739a5.08,5.08,0,0,1-4.965-5.158V61.816a5.08,5.08,0,0,1,4.965-5.158H136a5.08,5.08,0,0,1,4.965,5.158v62.661A5.08,5.08,0,0,1,136,129.635Z" transform="translate(2.671 2.45)"/>
    <path id="Path_11" data-name="Path 11" class="cls-2" d="M134.232,117.623H98.314a3.267,3.267,0,0,1-3.2-3.327V63.877a3.267,3.267,0,0,1,3.2-3.327h35.917a3.267,3.267,0,0,1,3.2,3.327V114.3A3.267,3.267,0,0,1,134.232,117.623Z" transform="translate(2.771 2.721)"/>
    <ellipse id="Ellipse_3" data-name="Ellipse 3" class="cls-1" cx="2.272" cy="2.36" rx="2.272" ry="2.36" transform="translate(118.619 123.699)"/>
    <path id="Path_12" data-name="Path 12" class="cls-5" d="M2.272,0A2.317,2.317,0,0,1,4.543,2.36,2.317,2.317,0,0,1,2.272,4.72,2.317,2.317,0,0,1,0,2.36,2.317,2.317,0,0,1,2.272,0Z" transform="translate(118.619 123.699)"/>
    <rect id="Rectangle_10" data-name="Rectangle 10" class="cls-4" width="31.506" height="27.437" transform="translate(103.904 68.705)"/>
    <rect id="Rectangle_11" data-name="Rectangle 11" class="cls-2" width="32.167" height="27.437" transform="translate(103.243 68.705)"/>
    <line id="Line_4" data-name="Line 4" class="cls-2" x2="24.714" transform="translate(104.316 103.915)"/>
    <line id="Line_5" data-name="Line 5" class="cls-2" x2="20.595" transform="translate(104.316 108.195)"/>
  </g>
</svg>
