<svg id="SvgjsSvg1031" width="288" height="288" xmlns="http://www.w3.org/2000/svg" version="1.1" xmlns:xlink="http://www.w3.org/1999/xlink" xmlns:svgjs="http://svgjs.com/svgjs"><defs id="SvgjsDefs1032"></defs><g id="SvgjsG1033"><svg xmlns="http://www.w3.org/2000/svg" width="288" height="288" viewBox="0 0 32 32"><g transform="translate(-188.5 -207.484)" fill="#000000" class="color000 svgShape"><path fill="#373449" d="m 189.49998,210.4842 30,0 c 0.553,0 1,0.485 1,1.084 l 0,23.832 c 0,0.599 -0.447,1.084 -1,1.084 l -30,0 c -0.553,0 -1,-0.485 -1,-1.084 l 0,-23.832 c 0,-0.598 0.447,-1.084 1,-1.084 z" class="color373449 svgShape"></path><path fill="#f7f7f8" d="m 190.43798,214.4842 28.125,0 c 0.518,0 0.938,0.392 0.938,0.875 l 0,19.25 c 0,0.483 -0.42,0.875 -0.938,0.875 l -28.125,0 c -0.518,0 -0.938,-0.392 -0.938,-0.875 l 0,-19.25 c 0,-0.483 0.42,-0.875 0.938,-0.875 z" class="colorf7f7f8 svgShape"></path><path fill="#ef4c45" d="m 218.49998,212.4842 c 0,0.553 -0.447,1 -1,1 -0.553,0 -1,-0.447 -1,-1 0,-0.553 0.447,-1 1,-1 0.553,0 1,0.447 1,1 z" class="coloref4c45 svgShape"></path><path fill="#eff0f2" d="M215.49998 212.4842c0 .553-.447 1-1 1-.553 0-1-.447-1-1 0-.553.447-1 1-1 .553 0 1 .447 1 1zM212.49998 212.4842c0 .553-.447 1-1 1-.553 0-1-.447-1-1 0-.553.447-1 1-1 .553 0 1 .447 1 1z" class="coloreff0f2 svgShape"></path><rect width="5" height="3" x="213.5" y="215.484" fill="#66badd" class="color3bc689 svgShape"></rect><rect width="5" height="3" x="213.5" y="219.484" fill="#66badd" class="color3bc689 svgShape"></rect><rect width="5" height="3" x="213.5" y="223.484" fill="#66badd" class="color3bc689 svgShape"></rect><rect width="5" height="3" x="213.5" y="227.484" fill="#66badd" class="color3bc689 svgShape"></rect><rect width="5" height="3" x="213.5" y="231.484" fill="#66badd" class="color3bc689 svgShape"></rect><rect width="22" height="19" x="190.5" y="215.484" fill="#66badd" class="color3bc689 svgShape"></rect><path fill="#6c91b8" d="m 200.73608,221.7604 -8.987,10.02408 0.0618,0 c -0.1805,0.17891 -0.31192,0.41166 -0.31192,0.68716 0,0.55259 0.4465,1.00067 1.00067,1.00067 0.0222,0 0.0412,0.002 0.0617,0 l 17.87425,0 c 0.0222,0.002 0.0396,0 0.0618,0 0.55258,0 1.00066,-0.44808 1.00066,-1.00067 0,-0.27708 -0.13141,-0.50666 -0.31191,-0.68716 l 0.0617,0 -9.01708,-10.05892 c -0.5225,-0.52408 -1.17009,-0.28975 -1.49467,0.0348 l 0,0 z" class="color216d55 svgShape"></path><path fill="#f7f7f8" d="m 195.5,218.98481 c 0,0.82809 -0.67134,1.49942 -1.49942,1.49942 -0.82808,0 -1.49942,-0.67133 -1.49942,-1.49942 0,-0.82808 0.67134,-1.49941 1.49942,-1.49941 0.82808,-0.002 1.49942,0.67133 1.49942,1.49941 z" class="colorf7f7f8 svgShape"></path><path fill="#6c91b8" d="m 208.73666,223.81398 -8.66083,9.6615 c 3.72558,0 6.84158,0.019 11.42533,0 0,-5.06825 0,-0.88825 0,-8.00059 l -1.36166,-1.615 c -0.52409,-0.52408 -1.07667,-0.36733 -1.40284,-0.0412 l 0,0 z" class="color216d55 svgShape"></path></g></svg></g></svg>