<?xml version="1.0" encoding="utf-8"?>
<!-- Generator: Adobe Illustrator 23.0.6, SVG Export Plug-In . SVG Version: 6.00 Build 0)  -->
<svg version="1.1" id="Layer_1" xmlns="http://www.w3.org/2000/svg" xmlns:xlink="http://www.w3.org/1999/xlink" x="0px" y="0px"
	 viewBox="0 0 139.5 104.9" style="enable-background:new 0 0 139.5 104.9;" xml:space="preserve">
<style type="text/css">
	.st0{opacity:0.3;fill:#373449;enable-background:new    ;}
	.st1{fill:none;stroke:#373449;stroke-linecap:round;stroke-linejoin:round;stroke-miterlimit:10;}
	.st2{opacity:0.3;fill:#5BDADD;enable-background:new    ;}
	.st3{fill:none;stroke:#3D6CB4;stroke-linecap:round;stroke-linejoin:round;stroke-miterlimit:10;}
</style>
<g>
	<rect x="45.2" y="83.9" class="st0" width="21" height="5"/>
	<path class="st1" d="M90,84.1h-76c-6.6,0-12-5.4-12-12V13.2c0-6.6,5.4-12,12-12h83.8c6.6,0,12,5.4,12,12v22.5"/>
	<path class="st1" d="M90,66.8H14c-3.6,0-6.5-2.9-6.5-6.5V13.6c0-3.6,2.9-6.5,6.5-6.5h83.6c3.6,0,6.5,2.9,6.5,6.5v21.7"/>
	<path class="st0" d="M7.5,15.6v-2.1c0-3.6,2.9-6.5,6.5-6.5h83.6c3.6,0,6.5,2.9,6.5,6.5v2.1C104.1,15.6,7.5,15.6,7.5,15.6z"/>
	<path class="st1" d="M7.5,15.6v-2.1c0-3.6,2.9-6.5,6.5-6.5h83.6c3.6,0,6.5,2.9,6.5,6.5v2.1C104.1,15.6,7.5,15.6,7.5,15.6z"/>
	<circle class="st0" cx="55.8" cy="75.7" r="3.6"/>
	<circle class="st1" cx="55.8" cy="75.7" r="3.6"/>
	<path class="st1" d="M66.4,84.3c0,0-1.9,12.3,7.5,12.3c-11.4,0-18.7,0-18.7,0h1.2c0,0-7,0-18.5,0c9.4,0,7.3-12.2,7.3-12.2"/>
	<rect x="14.8" y="22" class="st1" width="36" height="13.4"/>
	<g>
		<line class="st1" x1="56.6" y1="23.6" x2="86.6" y2="23.6"/>
		<line class="st1" x1="56.6" y1="29.6" x2="91.6" y2="29.6"/>
		<line class="st1" x1="56.6" y1="33.6" x2="86.6" y2="33.6"/>
	</g>
	<rect x="14.8" y="42.9" class="st2" width="18" height="18"/>
	<rect x="14.8" y="42.9" class="st3" width="18" height="18"/>
	<rect x="39.3" y="42.9" class="st1" width="18" height="18"/>
	<rect x="63.8" y="42.9" class="st1" width="18" height="18"/>
	<path class="st1" d="M133,104H94.8c-2.7,0-4.8-2.2-4.8-4.8V40.6c0-2.7,2.2-4.8,4.8-4.8H133c2.7,0,4.8,2.2,4.8,4.8v58.6
		C137.8,101.8,135.6,104,133,104z"/>
	<path class="st1" d="M131.3,93H96.5c-1.7,0-3.1-1.4-3.1-3.1V42.7c0-1.7,1.4-3.1,3.1-3.1h34.9c1.7,0,3.1,1.4,3.1,3.1v47.1
		C134.5,91.6,133.1,93,131.3,93z"/>
	<circle class="st0" cx="115.7" cy="98.3" r="2.2"/>
	<circle class="st1" cx="115.7" cy="98.3" r="2.2"/>
	<rect x="99.2" y="44.7" class="st2" width="30.6" height="25.6"/>
	<rect x="98.6" y="44.7" class="st1" width="31.2" height="25.6"/>
	<line class="st1" x1="99.6" y1="77.6" x2="123.6" y2="77.6"/>
	<line class="st1" x1="99.6" y1="81.6" x2="119.6" y2="81.6"/>
</g>
</svg>
