<svg xmlns="http://www.w3.org/2000/svg" width="141" height="111" viewBox="0 0 141 111"><defs><style>.a,.c{fill:#373449;}.a,.d{opacity:0.3;}.b,.e{fill:none;stroke:#373449;stroke-linecap:round;}.b{stroke-linejoin:round;stroke-miterlimit:10;}.d{fill:#5bdadd;}</style></defs><g transform="translate(-3.141 -21.585)"><rect class="a" width="21.622" height="5.352" transform="translate(48.268 110.671)"/><path class="b" d="M94.352,110.768H16.041a12.685,12.685,0,0,1-12.4-12.881V34.966a12.685,12.685,0,0,1,12.4-12.881H102.3a12.685,12.685,0,0,1,12.4,12.881V59.073" transform="translate(0 0)"/><path class="b" d="M94.184,91.9H15.954a6.814,6.814,0,0,1-6.661-6.92V34.918A6.815,6.815,0,0,1,15.955,28h86.1a6.814,6.814,0,0,1,6.661,6.92V58.1" transform="translate(0.168 0.412)"/><path class="c" d="M9.292,37.113v-2.2A6.815,6.815,0,0,1,15.954,28h86.1a6.814,6.814,0,0,1,6.661,6.92v2.2Z" transform="translate(0.168 0.412)"/><path class="b" d="M9.292,37.113v-2.2A6.815,6.815,0,0,1,15.954,28h86.1a6.814,6.814,0,0,1,6.661,6.92v2.2Z" transform="translate(0.168 0.412)"/><ellipse class="a" cx="3.712" cy="3.856" rx="3.712" ry="3.856" transform="translate(55.48 97.981)"/><ellipse class="b" cx="3.712" cy="3.856" rx="3.712" ry="3.856" transform="translate(55.48 97.981)"/><path class="b" d="M68.96,105.247S67,118.413,76.65,118.413H39.557c9.65,0,7.539-13.029,7.539-13.029" transform="translate(1.086 5.836)"/><rect class="b" width="37.024" height="14.37" transform="translate(16.922 44.389)"/><g transform="translate(60.015 46.131)"><line class="b" x2="30.892" transform="translate(0 0)"/><line class="b" x2="36.041" transform="translate(0 6.418)"/><line class="b" x2="30.892" transform="translate(0 10.697)"/></g><rect class="d" width="18.513" height="19.231" transform="translate(16.922 66.695)"/><rect class="b" width="18.513" height="19.231" transform="translate(16.922 66.695)"/><rect class="b" width="18.513" height="19.231" transform="translate(42.163 66.695)"/><rect class="b" width="18.513" height="19.231" transform="translate(67.399 66.695)"/><path class="b" d="M136,129.635H96.739a5.08,5.08,0,0,1-4.965-5.158V61.816a5.08,5.08,0,0,1,4.965-5.158H136a5.08,5.08,0,0,1,4.965,5.158v62.661A5.08,5.08,0,0,1,136,129.635Z" transform="translate(2.671 2.45)"/><path class="b" d="M134.232,117.623H98.314a3.267,3.267,0,0,1-3.2-3.327V63.877a3.267,3.267,0,0,1,3.2-3.327h35.917a3.267,3.267,0,0,1,3.2,3.327V114.3A3.267,3.267,0,0,1,134.232,117.623Z" transform="translate(2.771 2.721)"/><ellipse class="a" cx="2.272" cy="2.36" rx="2.272" ry="2.36" transform="translate(118.619 123.699)"/><path class="e" d="M2.272,0A2.317,2.317,0,0,1,4.543,2.36,2.317,2.317,0,0,1,2.272,4.72,2.317,2.317,0,0,1,0,2.36,2.317,2.317,0,0,1,2.272,0Z" transform="translate(118.619 123.699)"/><rect class="d" width="31.506" height="27.437" transform="translate(103.904 68.705)"/><rect class="b" width="32.167" height="27.437" transform="translate(103.243 68.705)"/><line class="b" x2="24.714" transform="translate(104.316 103.915)"/><line class="b" x2="20.595" transform="translate(104.316 108.195)"/></g></svg>