<?xml version="1.0" encoding="utf-8"?>
<!-- Generator: Adobe Illustrator 23.0.6, SVG Export Plug-In . SVG Version: 6.00 Build 0)  -->
<svg version="1.1" id="Layer_1" xmlns="http://www.w3.org/2000/svg" xmlns:xlink="http://www.w3.org/1999/xlink" x="0px" y="0px"
	 viewBox="0 0 32 32" style="enable-background:new 0 0 32 32;" xml:space="preserve">
<style type="text/css">
	.st0{fill:#373449;}
	.st1{fill:#FFFFFF;}
	.st2{fill:#EF4C45;}
	.st3{fill:#EFF0F2;}
</style>
<g transform="translate(-94.5 -207.484)">
	<path class="st0" d="M95.5,210.5h30c0.6,0,1,0.5,1,1.1v23.8c0,0.6-0.4,1.1-1,1.1h-30c-0.6,0-1-0.5-1-1.1v-23.8
		C94.5,211,94.9,210.5,95.5,210.5z"/>
	<path d="M96.4,214.5h28.1c0.5,0,0.9,0.4,0.9,0.9v19.2c0,0.5-0.4,0.9-0.9,0.9H96.4c-0.5,0-0.9-0.4-0.9-0.9v-19.2
		C95.5,214.9,95.9,214.5,96.4,214.5z"/>
	<g>
		<path class="st1" d="M98.2,217.5c0-0.5,0.2-0.9,0.5-0.9c0.4,0,0.5,0.3,0.5,0.9c0,0.6-0.2,0.9-0.5,0.9
			C98.4,218.4,98.2,218.1,98.2,217.5z M99.1,217.5c0-0.5-0.1-0.7-0.3-0.7c-0.2,0-0.3,0.2-0.3,0.7c0,0.5,0.1,0.7,0.3,0.7
			C99,218.2,99.1,218,99.1,217.5z M98.8,217.4c0.1,0,0.2,0.1,0.2,0.2c0,0.1-0.1,0.2-0.2,0.2c-0.1,0-0.2-0.1-0.2-0.2c0,0,0,0,0,0
			C98.6,217.4,98.7,217.4,98.8,217.4z"/>
		<path class="st1" d="M100.2,216.9l-0.4,0.2l-0.1-0.2l0.5-0.3h0.2v1.5h0.3v0.2h-1v-0.2h0.4L100.2,216.9L100.2,216.9z"/>
		<path class="st1" d="M103.5,216.9l0.1,0.2l-0.8,0.5l0.8,0.5l-0.1,0.2l-0.9-0.6v-0.2L103.5,216.9z"/>
		<path class="st1" d="M104.8,218.3v-0.8h-0.6v0.8H104v-1.7h0.2v0.7h0.6v-0.7h0.2v1.7C105.1,218.3,104.8,218.3,104.8,218.3z"/>
		<path class="st1" d="M106.1,216.9v1.5h-0.2v-1.5h-0.5v-0.2h1.3l0,0.2C106.6,216.9,106.1,216.9,106.1,216.9z"/>
		<path class="st1" d="M107.9,218.3l0-0.9c0-0.2,0-0.4,0-0.6h0l-0.3,1.1h-0.2l-0.3-1.1h0c0,0.1,0,0.3,0,0.6l0,0.9h-0.2l0.1-1.7h0.3
			l0.3,1.1h0l0.2-1.1h0.3l0.1,1.7C108.1,218.3,107.9,218.3,107.9,218.3z"/>
		<path class="st1" d="M108.5,218.3v-1.7h0.2v1.5h0.8l0,0.2C109.4,218.3,108.5,218.3,108.5,218.3z"/>
		<path class="st1" d="M110.8,217.5v0.2l-0.9,0.6l-0.1-0.2l0.8-0.5l-0.8-0.5l0.1-0.2L110.8,217.5z"/>
		<path class="st1" d="M98.2,220.4c0-0.5,0.2-0.9,0.5-0.9c0.4,0,0.5,0.3,0.5,0.9c0,0.6-0.2,0.9-0.5,0.9
			C98.4,221.3,98.2,221,98.2,220.4z M99.1,220.4c0-0.5-0.1-0.7-0.3-0.7c-0.2,0-0.3,0.2-0.3,0.7c0,0.5,0.1,0.7,0.3,0.7
			C99,221.1,99.1,220.9,99.1,220.4z M98.8,220.2c0.1,0,0.2,0.1,0.2,0.2c0,0.1-0.1,0.2-0.2,0.2c-0.1,0-0.2-0.1-0.2-0.2c0,0,0,0,0,0
			C98.6,220.3,98.7,220.2,98.8,220.2z"/>
		<path class="st1" d="M99.9,221h0.8l0,0.2h-1v-0.2c0.6-0.6,0.7-0.8,0.7-1c0-0.2-0.1-0.3-0.3-0.3c-0.1,0-0.2,0.1-0.3,0.2l-0.2-0.1
			c0.1-0.2,0.3-0.3,0.5-0.3c0.3,0,0.5,0.2,0.5,0.5C100.7,220.3,100.4,220.6,99.9,221z"/>
		<path class="st1" d="M103.5,219.8l0.1,0.2l-0.8,0.5l0.8,0.5l-0.1,0.2l-0.9-0.6v-0.2L103.5,219.8z"/>
		<path class="st1" d="M104.5,221.2H104v-1.7h0.4c0.3,0,0.6,0.1,0.6,0.4c0,0.2-0.1,0.3-0.3,0.4v0c0.2,0,0.4,0.1,0.4,0.4
			C105.1,221.1,104.8,221.2,104.5,221.2z M104.5,219.8h-0.2v0.5h0.3c0.2,0,0.3-0.1,0.3-0.3C104.8,219.8,104.7,219.8,104.5,219.8z
			 M104.5,220.5h-0.3v0.6h0.3c0.2,0,0.4,0,0.4-0.3C104.9,220.5,104.7,220.5,104.5,220.5z"/>
		<path class="st1" d="M106,221.3c-0.4,0-0.6-0.3-0.6-0.9c0-0.5,0.2-0.9,0.6-0.9s0.6,0.3,0.6,0.9C106.6,220.9,106.4,221.3,106,221.3
			z M106,219.7c-0.3,0-0.4,0.2-0.4,0.7s0.1,0.7,0.4,0.7c0.3,0,0.4-0.2,0.4-0.7C106.4,220,106.2,219.7,106,219.7z"/>
		<path class="st1" d="M107.3,221.2h-0.4v-1.7h0.4c0.4,0,0.8,0.1,0.8,0.8C108,221.1,107.6,221.2,107.3,221.2z M107.3,219.8h-0.2v1.3
			h0.2c0.2,0,0.5-0.1,0.5-0.7C107.8,219.8,107.5,219.8,107.3,219.8z"/>
		<path class="st1" d="M109,220.6v0.6h-0.2v-0.6l-0.6-1h0.3l0.4,0.8h0l0.4-0.8h0.2C109.5,219.6,109,220.6,109,220.6z"/>
		<path class="st1" d="M110.8,220.4v0.2l-0.9,0.6l-0.1-0.2l0.8-0.5l-0.8-0.5l0.1-0.2L110.8,220.4z"/>
		<path class="st1" d="M98.2,223.3c0-0.5,0.2-0.9,0.5-0.9c0.4,0,0.5,0.3,0.5,0.9c0,0.6-0.2,0.9-0.5,0.9
			C98.4,224.2,98.2,223.8,98.2,223.3z M99.1,223.3c0-0.5-0.1-0.7-0.3-0.7c-0.2,0-0.3,0.2-0.3,0.7c0,0.5,0.1,0.7,0.3,0.7
			C99,224,99.1,223.8,99.1,223.3z M98.8,223.1c0.1,0,0.2,0.1,0.2,0.2c0,0.1-0.1,0.2-0.2,0.2c-0.1,0-0.2-0.1-0.2-0.2c0,0,0,0,0,0
			C98.6,223.2,98.7,223.1,98.8,223.1z"/>
		<path class="st1" d="M100.1,224.2c-0.2,0-0.4-0.1-0.5-0.2l0.1-0.1c0.1,0.1,0.2,0.2,0.4,0.2c0.2,0,0.4-0.1,0.4-0.3
			c0-0.2-0.1-0.3-0.3-0.3H100l0-0.2h0.1c0.2,0,0.3-0.1,0.3-0.3c0-0.2-0.1-0.3-0.3-0.3c-0.1,0-0.2,0.1-0.3,0.2l-0.1-0.1
			c0.1-0.1,0.3-0.2,0.5-0.2c0.3,0,0.5,0.2,0.5,0.4c0,0.2-0.1,0.4-0.3,0.4v0c0.2,0,0.4,0.2,0.4,0.4
			C100.7,223.9,100.5,224.2,100.1,224.2z"/>
		<path class="st1" d="M103.5,222.7l0.1,0.2l-0.8,0.5l0.8,0.5l-0.1,0.2l-0.9-0.6v-0.2L103.5,222.7z"/>
		<path class="st1" d="M104.8,224.1v-0.8h-0.6v0.8H104v-1.7h0.2v0.7h0.6v-0.7h0.2v1.7L104.8,224.1L104.8,224.1z"/>
		<path class="st1" d="M105.8,222.6v0.5h0.6v0.2h-0.6v0.6h0.7v0.2h-1v-1.7h1l0,0.2H105.8z"/>
		<path class="st1" d="M107.7,223.7h-0.6l-0.1,0.4h-0.2l0.5-1.7h0.3l0.5,1.7h-0.2C107.9,224.1,107.7,223.7,107.7,223.7z
			 M107.2,223.5h0.5l-0.3-0.9h0L107.2,223.5z"/>
		<path class="st1" d="M108.7,224.1h-0.4v-1.7h0.4c0.4,0,0.8,0.1,0.8,0.8C109.5,224,109.1,224.1,108.7,224.1z M108.8,222.6h-0.2v1.3
			h0.2c0.2,0,0.5-0.1,0.5-0.7C109.2,222.7,109,222.6,108.8,222.6z"/>
		<path class="st1" d="M110.1,222.6v0.5h0.6v0.2h-0.6v0.6h0.7v0.2h-1v-1.7h1l0,0.2H110.1z"/>
		<path class="st1" d="M111.9,223.4l0.5,0.7h-0.3l-0.4-0.7h-0.2v0.7h-0.2v-1.7h0.4c0.4,0,0.6,0.2,0.6,0.5
			C112.3,223.2,112.2,223.3,111.9,223.4z M111.7,222.6h-0.2v0.6h0.2c0.2,0,0.4-0.1,0.4-0.3C112.1,222.7,112,222.6,111.7,222.6z"/>
		<path class="st1" d="M113.7,223.3v0.2l-0.9,0.6l-0.1-0.2l0.8-0.5l-0.8-0.5l0.1-0.2L113.7,223.3z"/>
		<path class="st1" d="M98.2,226.2c0-0.5,0.2-0.9,0.5-0.9c0.4,0,0.5,0.3,0.5,0.9c0,0.6-0.2,0.9-0.5,0.9
			C98.4,227,98.2,226.7,98.2,226.2z M99.1,226.2c0-0.5-0.1-0.7-0.3-0.7c-0.2,0-0.3,0.2-0.3,0.7c0,0.5,0.1,0.7,0.3,0.7
			C99,226.9,99.1,226.7,99.1,226.2z M98.8,226c0.1,0,0.2,0.1,0.2,0.2c0,0.1-0.1,0.2-0.2,0.2c-0.1,0-0.2-0.1-0.2-0.2c0,0,0,0,0,0
			C98.6,226.1,98.7,226,98.8,226z"/>
		<path class="st1" d="M100.5,226.6v0.4h-0.2v-0.4h-0.7v-0.2l0.5-1.1l0.2,0.1l-0.4,1h0.4l0-0.4h0.2v0.4h0.2v0.2
			C100.7,226.6,100.5,226.6,100.5,226.6z"/>
		<path class="st1" d="M103.5,225.6l0.1,0.2l-0.8,0.5l0.8,0.5l-0.1,0.2l-0.9-0.6v-0.2L103.5,225.6z"/>
		<path class="st1" d="M104.1,227.3l-0.2-0.1l1-2.1l0.2,0.1L104.1,227.3z"/>
		<path class="st1" d="M106.3,227v-0.8h-0.6v0.8h-0.2v-1.7h0.2v0.7h0.6v-0.7h0.2v1.7C106.5,227,106.3,227,106.3,227z"/>
		<path class="st1" d="M107.2,225.5v0.5h0.6v0.2h-0.6v0.6h0.7v0.2h-1v-1.7h1l0,0.2H107.2z"/>
		<path class="st1" d="M109.2,226.6h-0.6l-0.1,0.4h-0.2l0.5-1.7h0.3l0.5,1.7h-0.2C109.3,227,109.2,226.6,109.2,226.6z M108.6,226.4
			h0.5l-0.3-0.9h0L108.6,226.4z"/>
		<path class="st1" d="M110.2,227h-0.4v-1.7h0.4c0.4,0,0.8,0.1,0.8,0.8C110.9,226.9,110.5,227,110.2,227z M110.2,225.5H110v1.3h0.2
			c0.2,0,0.5-0.1,0.5-0.7C110.7,225.6,110.4,225.5,110.2,225.5z"/>
		<path class="st1" d="M111.5,225.5v0.5h0.6v0.2h-0.6v0.6h0.7v0.2h-1v-1.7h1l0,0.2H111.5z"/>
		<path class="st1" d="M113.4,226.3l0.5,0.7h-0.3l-0.4-0.7h-0.2v0.7h-0.2v-1.7h0.4c0.4,0,0.6,0.2,0.6,0.5
			C113.8,226.1,113.6,226.2,113.4,226.3z M113.2,225.5h-0.2v0.6h0.2c0.2,0,0.4-0.1,0.4-0.3C113.5,225.6,113.4,225.5,113.2,225.5z"/>
		<path class="st1" d="M115.2,226.2v0.2l-0.9,0.6l-0.1-0.2l0.8-0.5l-0.8-0.5l0.1-0.2L115.2,226.2z"/>
	</g>
	<path class="st2" d="M124.5,212.5c0,0.6-0.4,1-1,1s-1-0.4-1-1s0.4-1,1-1S124.5,211.9,124.5,212.5z"/>
	<path class="st3" d="M121.5,212.5c0,0.6-0.4,1-1,1s-1-0.4-1-1s0.4-1,1-1S121.5,211.9,121.5,212.5z M118.5,212.5c0,0.6-0.4,1-1,1
		s-1-0.4-1-1s0.4-1,1-1S118.5,211.9,118.5,212.5z"/>
</g>
</svg>
