<svg id="Capa_1" data-name="Capa 1" xmlns="http://www.w3.org/2000/svg" viewBox="0 0 385 481"><defs><style>.cls-1{fill:#fff;stroke:#000;stroke-miterlimit:10;}</style></defs><title>development</title><path class="cls-1" d="M392,0H88A40.05,40.05,0,0,0,48,40V256a40.05,40.05,0,0,0,40,40H197.39L186,336H160v16H320V336H294l-11.42-40H392a40.05,40.05,0,0,0,40-40V40A40.05,40.05,0,0,0,392,0ZM202.61,336,214,296H266l11.42,40ZM416,256a24,24,0,0,1-24,24H88a24,24,0,0,1-24-24V240H416Zm0-32H64V40A24,24,0,0,1,88,16H392a24,24,0,0,1,24,24Z" transform="translate(-47.5 0.5)"/><path class="cls-1" d="M304,368H80a8,8,0,0,0-8,8v96a8,8,0,0,0,8,8H304a8,8,0,0,0,8-8V376A8,8,0,0,0,304,368Zm-8,96H88V384H296Z" transform="translate(-47.5 0.5)"/><rect class="cls-1" x="56.5" y="432.5" width="16" height="16"/><rect class="cls-1" x="56.5" y="400.5" width="16" height="16"/><rect class="cls-1" x="88.5" y="400.5" width="16" height="16"/><rect class="cls-1" x="120.5" y="400.5" width="16" height="16"/><rect class="cls-1" x="184.5" y="400.5" width="16" height="16"/><rect class="cls-1" x="152.5" y="400.5" width="16" height="16"/><rect class="cls-1" x="216.5" y="432.5" width="16" height="16"/><rect class="cls-1" x="216.5" y="400.5" width="16" height="16"/><rect class="cls-1" x="88.5" y="432.5" width="112" height="16"/><path class="cls-1" d="M368,368a40,40,0,0,0-40,40v32a40,40,0,0,0,80,0V408A40,40,0,0,0,368,368Zm24,72a24,24,0,0,1-48,0V408a24,24,0,0,1,48,0Z" transform="translate(-47.5 0.5)"/><rect class="cls-1" x="312.5" y="400.5" width="16" height="16"/><rect class="cls-1" x="181.73" y="120.14" width="116.43" height="15.99" transform="translate(3.24 324.07) rotate(-74.03)"/><path class="cls-1" d="M197.12,94.14,186.88,81.86l-48,40a8,8,0,0,0-1,11.26,7.56,7.56,0,0,0,1,1l48,40,10.24-12.28L156.5,128Z" transform="translate(-47.5 0.5)"/><path class="cls-1" d="M342.14,122.88a7.56,7.56,0,0,0-1-1l-48-40L282.88,94.14,323.5,128l-40.62,33.86,10.24,12.28,48-40A8,8,0,0,0,342.14,122.88Z" transform="translate(-47.5 0.5)"/></svg>