<svg id="Layer_1" data-name="Layer 1" xmlns="http://www.w3.org/2000/svg" viewBox="0 0 126.51 83.87"><defs><style>.cls-1{fill:none;stroke:#373449;stroke-linecap:round;stroke-linejoin:round;}.cls-2{fill:#373449;opacity:0.3;isolation:isolate;}</style></defs><title>Artboard 1</title><path class="cls-1" d="M13.17,75.8a6.62,6.62,0,0,1-1.56-4.24V19.62A6.62,6.62,0,0,1,18.23,13H83.49"/><path class="cls-1" d="M113.35,38.81V71.56a6.53,6.53,0,0,1-1.54,4.24"/><path class="cls-1" d="M109.46,44.4V65.19a6.62,6.62,0,0,1-6.62,6.62H22.11a6.62,6.62,0,0,1-6.62-6.62V23a6.63,6.63,0,0,1,6.62-6.62H84"/><path class="cls-1" d="M121,75.8H4a3,3,0,0,0-3,3V79a3,3,0,0,0,3,3H121a3,3,0,0,0,3-3v-.22A3,3,0,0,0,121,75.8Z"/><path class="cls-2" d="M81.55,78.9H43.4a1.5,1.5,0,0,1-1.5-1.5v-.1a1.5,1.5,0,0,1,1.5-1.5H81.55a1.5,1.5,0,0,1,1.5,1.5v.1A1.5,1.5,0,0,1,81.55,78.9Z"/><path class="cls-1" d="M81.55,78.9H43.4a1.5,1.5,0,0,1-1.5-1.5v-.1a1.5,1.5,0,0,1,1.5-1.5H81.55a1.5,1.5,0,0,1,1.5,1.5v.1A1.5,1.5,0,0,1,81.55,78.9Z"/><line class="cls-1" x1="25.81" y1="26.51" x2="60.81" y2="26.51"/><line class="cls-1" x1="25.81" y1="36.51" x2="65.81" y2="36.51"/><path class="cls-1" d="M122.25,21.3l3.23-.88-2.07-7.61-3.71,1a17.26,17.26,0,0,0-3.61-4.6L118,5.68l-6.94-4L109.12,5a19.72,19.72,0,0,0-6.62-.9L101.6.74,94.5,2.67,95.39,6a14.32,14.32,0,0,0-5.62,4.18L86.24,8.28l-4,6.94,3.42,2.28a17.06,17.06,0,0,0-.83,5.8l-4,1.09L82.84,32l3.52-1a17.65,17.65,0,0,0,4.52,6.06l-2,3.22,6.9,3.89,2.25-3.49a14.41,14.41,0,0,0,7,.73l1,3.86,7.11-1.93-1.05-3.86a19.58,19.58,0,0,0,5.26-4.09l3.36,1.93,4-6.92-3.29-1.63A17.48,17.48,0,0,0,122.25,21.3Zm-15.91,13a11.84,11.84,0,1,1,8.33-14.53A11.85,11.85,0,0,1,106.34,34.26Z"/><path class="cls-2" d="M122.25,21.3l3.23-.88-2.07-7.61-3.71,1a17.26,17.26,0,0,0-3.61-4.6L118,5.68l-6.94-4L109.12,5a19.72,19.72,0,0,0-6.62-.9L101.6.74,94.5,2.67,95.39,6a14.32,14.32,0,0,0-5.62,4.18L86.24,8.28l-4,6.94,3.42,2.28a17.06,17.06,0,0,0-.83,5.8l-4,1.09L82.84,32l3.52-1a17.65,17.65,0,0,0,4.52,6.06l-2,3.22,6.9,3.89,2.25-3.49a14.41,14.41,0,0,0,7,.73l1,3.86,7.11-1.93-1.05-3.86a19.58,19.58,0,0,0,5.26-4.09l3.36,1.93,4-6.92-3.29-1.63A17.48,17.48,0,0,0,122.25,21.3Zm-15.91,13a11.84,11.84,0,1,1,8.33-14.53A11.85,11.85,0,0,1,106.34,34.26Z"/><line class="cls-1" x1="25.81" y1="45.51" x2="79.81" y2="45.51"/><path class="cls-2" d="M97.42,63.81H27.53a2.42,2.42,0,0,1-2.41-2.41V56.22a2.43,2.43,0,0,1,2.41-2.42H97.42a2.43,2.43,0,0,1,2.42,2.42V61.4A2.42,2.42,0,0,1,97.42,63.81Z"/></svg>