<svg xmlns="http://www.w3.org/2000/svg" width="141" height="111" viewBox="0 0 141 111"><defs><style>.a{fill:none;stroke:#373449;stroke-linecap:round;stroke-linejoin:round;stroke-miterlimit:10;}.b{fill:#373449;opacity:0.3;}</style></defs><g transform="translate(-16.06 -33.288)"><path class="a" d="M122.277,46.041" transform="translate(13.199 1.521)"/><path class="a" d="M28.912,135.238a10.944,10.944,0,0,1-1.751-6.019V55.443c0-5.193,3.332-9.4,7.442-9.4h73.361" transform="translate(1.316 1.569)"/><path class="a" d="M33.782,111.225" transform="translate(2.138 28.261)"/><path class="a" d="M129.087,71.856v52.857a13.583,13.583,0,0,1-1.724,6.84" transform="translate(13.831 5.253)"/><path class="a" d="M128.9,52.661" transform="translate(14.021 2.354)"/><path class="a" d="M118.394,49.448" transform="translate(12.717 1.944)"/><path class="a" d="M136.755,90.2v30.272c0,5.322-3.334,9.637-7.447,9.637H38.492c-4.113,0-7.447-4.315-7.447-9.637V59.085c0-5.322,3.334-9.637,7.447-9.637h69.574" transform="translate(1.799 2.217)"/><path class="a" d="M125.014,56.068" transform="translate(13.539 2.831)"/><path class="a" d="M151.466,108.842H19.931a3.37,3.37,0,0,0-3.371,3.369v.243a3.37,3.37,0,0,0,3.371,3.369H151.465a3.37,3.37,0,0,0,3.371-3.369v-.243A3.369,3.369,0,0,0,151.466,108.842Z" transform="translate(0 27.965)"/><path class="b" d="M102.03,112.334H59.139a1.69,1.69,0,0,1-1.685-1.685v-.121a1.69,1.69,0,0,1,1.685-1.685h42.89a1.69,1.69,0,0,1,1.685,1.685v.121A1.691,1.691,0,0,1,102.03,112.334Z" transform="translate(5.113 27.965)"/><path class="a" d="M102.03,112.334H59.139a1.69,1.69,0,0,1-1.685-1.685v-.121a1.69,1.69,0,0,1,1.685-1.685h42.89a1.69,1.69,0,0,1,1.685,1.685v.121A1.691,1.691,0,0,1,102.03,112.334Z" transform="translate(5.113 27.965)"/><line class="a" x2="39.346" transform="translate(44.459 62.829)"/><line class="a" x2="44.967" transform="translate(44.461 80.374)"/><line class="a" x2="60.705" transform="translate(44.465 92.918)"/><path class="b" d="M121.951,98.1H43.386a2.725,2.725,0,0,1-2.717-2.717V89.561a2.726,2.726,0,0,1,2.717-2.717h78.565a2.725,2.725,0,0,1,2.717,2.717v5.825A2.725,2.725,0,0,1,121.951,98.1Z" transform="translate(3.029 19.497)"/><g transform="translate(106.296 33.788)"><path class="a" d="M142.952,56.9l3.632-.986-2.325-8.561-4.177,1.134a19.409,19.409,0,0,0-4.054-5.168l2.117-3.974-7.811-4.554-2.146,3.729a22.287,22.287,0,0,0-7.439-1.016l-1.008-3.714-7.989,2.17,1.008,3.714a16.219,16.219,0,0,0-6.32,4.7l-3.971-2.118-4.552,7.81,3.841,2.557a19.45,19.45,0,0,0-.93,6.521L96.32,60.369l2.325,8.561,3.964-1.077a19.775,19.775,0,0,0,5.083,6.8l-2.213,3.621,7.762,4.378,2.527-3.927a16.215,16.215,0,0,0,7.82.818l1.18,4.346,7.989-2.17-1.18-4.346a22.192,22.192,0,0,0,5.915-4.593l3.768,2.173,4.451-7.783-3.7-1.839A19.714,19.714,0,0,0,142.952,56.9Zm-17.88,14.57a13.314,13.314,0,1,1,9.36-16.339A13.314,13.314,0,0,1,125.072,71.468Z" transform="translate(-96.32 -33.788)"/><path class="b" d="M142.952,56.9l3.632-.986-2.325-8.561-4.177,1.134a19.409,19.409,0,0,0-4.054-5.168l2.117-3.974-7.811-4.554-2.146,3.729a22.287,22.287,0,0,0-7.439-1.016l-1.008-3.714-7.989,2.17,1.008,3.714a16.219,16.219,0,0,0-6.32,4.7l-3.971-2.118-4.552,7.81,3.841,2.557a19.45,19.45,0,0,0-.93,6.521L96.32,60.369l2.325,8.561,3.964-1.077a19.775,19.775,0,0,0,5.083,6.8l-2.213,3.621,7.762,4.378,2.527-3.927a16.215,16.215,0,0,0,7.82.818l1.18,4.346,7.989-2.17-1.18-4.346a22.192,22.192,0,0,0,5.915-4.593l3.768,2.173,4.451-7.783-3.7-1.839A19.714,19.714,0,0,0,142.952,56.9Zm-17.88,14.57a13.314,13.314,0,1,1,9.36-16.339A13.314,13.314,0,0,1,125.072,71.468Z" transform="translate(-96.32 -33.788)"/></g><line class="a" y2="26.154" transform="translate(138.56 83.421)"/></g></svg>