<?xml version="1.0" encoding="utf-8"?>
<!-- Generator: Adobe Illustrator 23.0.6, SVG Export Plug-In . SVG Version: 6.00 Build 0)  -->
<svg version="1.1" id="Layer_1" xmlns="http://www.w3.org/2000/svg" xmlns:xlink="http://www.w3.org/1999/xlink" x="0px" y="0px"
	 viewBox="0 0 126.5 83.9" style="enable-background:new 0 0 126.5 83.9;" xml:space="preserve">
<style type="text/css">
	.st0{fill:none;stroke:#373449;stroke-linecap:round;stroke-linejoin:round;stroke-miterlimit:10;}
	.st1{opacity:0.3;fill:#373449;enable-background:new    ;}
</style>
<g>
	<path class="st0" d="M106.7,13"/>
	<path class="st0" d="M13.2,75.8c-1-1.1-1.6-2.6-1.6-4.2V19.6c0-3.7,3-6.6,6.6-6.6h65.3"/>
	<path class="st0" d="M18.2,78.2"/>
	<path class="st0" d="M113.3,38.8v32.7c0,1.6-0.6,3.1-1.5,4.2"/>
	<path class="st0" d="M113.3,19.6"/>
	<path class="st0" d="M102.8,16.4"/>
	<path class="st0" d="M109.5,44.4v20.8c0,3.7-3,6.6-6.6,6.6H22.1c-3.7,0-6.6-3-6.6-6.6V23c0-3.7,3-6.6,6.6-6.6H84"/>
	<path class="st0" d="M109.5,23"/>
	<path class="st0" d="M121,75.8H4c-1.7,0-3,1.3-3,3V79c0,1.7,1.3,3,3,3h116.9c1.7,0,3-1.3,3-3v-0.2C123.9,77.1,122.6,75.8,121,75.8z
		"/>
	<path class="st1" d="M81.6,78.9H43.4c-0.8,0-1.5-0.7-1.5-1.5v-0.1c0-0.8,0.7-1.5,1.5-1.5h38.2c0.8,0,1.5,0.7,1.5,1.5v0.1
		C83.1,78.2,82.4,78.9,81.6,78.9z"/>
	<path class="st0" d="M81.6,78.9H43.4c-0.8,0-1.5-0.7-1.5-1.5v-0.1c0-0.8,0.7-1.5,1.5-1.5h38.2c0.8,0,1.5,0.7,1.5,1.5v0.1
		C83.1,78.2,82.4,78.9,81.6,78.9z"/>
	<line class="st0" x1="25.8" y1="26.5" x2="60.8" y2="26.5"/>
	<line class="st0" x1="25.8" y1="36.5" x2="65.8" y2="36.5"/>
	<g>
		<path class="st0" d="M122.2,21.3l3.2-0.9l-2.1-7.6l-3.7,1c-1-1.9-2.2-3.4-3.6-4.6l1.9-3.5L111,1.6L109.1,5c-2.1-0.7-4.5-1-6.6-0.9
			l-0.9-3.3l-7.1,1.9L95.4,6c-2.9,1.3-4.1,2.5-5.6,4.2l-3.5-1.9l-4,6.9l3.4,2.3c-0.6,1.7-0.9,3.6-0.8,5.8l-4,1.1l2.1,7.6l3.5-1
			c1.1,2.4,2.6,4.3,4.5,6.1l-2,3.2l6.9,3.9l2.2-3.5c2.1,0.7,3.8,1.1,7,0.7l1.1,3.9l7.1-1.9l-1.1-3.9c1.9-1,3.8-2.4,5.3-4.1l3.4,1.9
			l4-6.9l-3.3-1.6C122.2,26.3,122.5,23.9,122.2,21.3z M106.3,34.3c-6.3,1.7-12.8-2-14.5-8.3s2-12.8,8.3-14.5
			c6.3-1.7,12.8,2,14.5,8.3C116.4,26,112.7,32.5,106.3,34.3z"/>
		<path class="st1" d="M122.2,21.3l3.2-0.9l-2.1-7.6l-3.7,1c-1-1.9-2.2-3.4-3.6-4.6l1.9-3.5L111,1.6L109.1,5c-2.1-0.7-4.5-1-6.6-0.9
			l-0.9-3.3l-7.1,1.9L95.4,6c-2.9,1.3-4.1,2.5-5.6,4.2l-3.5-1.9l-4,6.9l3.4,2.3c-0.6,1.7-0.9,3.6-0.8,5.8l-4,1.1l2.1,7.6l3.5-1
			c1.1,2.4,2.6,4.3,4.5,6.1l-2,3.2l6.9,3.9l2.2-3.5c2.1,0.7,3.8,1.1,7,0.7l1.1,3.9l7.1-1.9l-1.1-3.9c1.9-1,3.8-2.4,5.3-4.1l3.4,1.9
			l4-6.9l-3.3-1.6C122.2,26.3,122.5,23.9,122.2,21.3z M106.3,34.3c-6.3,1.7-12.8-2-14.5-8.3s2-12.8,8.3-14.5
			c6.3-1.7,12.8,2,14.5,8.3C116.4,26,112.7,32.5,106.3,34.3z"/>
	</g>
	<line class="st0" x1="25.8" y1="45.5" x2="79.8" y2="45.5"/>
	<path class="st1" d="M97.4,63.8H27.5c-1.3,0-2.4-1.1-2.4-2.4v-5.2c0-1.3,1.1-2.4,2.4-2.4h69.9c1.3,0,2.4,1.1,2.4,2.4v5.2
		C99.8,62.7,98.8,63.8,97.4,63.8z"/>
</g>
</svg>
