<svg xmlns="http://www.w3.org/2000/svg" width="24" height="24" viewBox="0 0 24 24"><g transform="translate(-0.001)"><g transform="translate(-200 -160)"><path d="M212.819,184H201.326A1.325,1.325,0,0,1,200,182.675v-21.35A1.324,1.324,0,0,1,201.326,160h21.35A1.325,1.325,0,0,1,224,161.325v21.35A1.325,1.325,0,0,1,222.676,184H216.56v-9.294h3.12l.467-3.622H216.56v-2.312c0-1.049.292-1.764,1.8-1.764h1.918v-3.24a25.692,25.692,0,0,0-2.8-.143c-2.765,0-4.658,1.688-4.658,4.788v2.671h-3.128v3.622h3.128V184Z" fill-rule="evenodd"/></g></g></svg>