<?xml version="1.0" encoding="utf-8"?>
<!-- Generator: Adobe Illustrator 23.0.4, SVG Export Plug-In . SVG Version: 6.00 Build 0)  -->
<svg version="1.1" id="Capa_1" xmlns="http://www.w3.org/2000/svg" xmlns:xlink="http://www.w3.org/1999/xlink" x="0px" y="0px"
	 viewBox="0 0 370.9 370.9" style="enable-background:new 0 0 370.9 370.9;" xml:space="preserve">
<style type="text/css">
	.st0{fill:#FFFFFF;}
	.st1{fill:#231F20;}
</style>
<path class="st0" d="M360.9,304.7H10c-5.5,0-10-4.5-10-10V76.2c0-5.5,4.5-10,10-10h350.9c5.5,0,10,4.5,10,10v218.6
	C370.9,300.2,366.4,304.7,360.9,304.7z"/>
<g>
	<g>
		<path class="st1" d="M355.6,66.2H15.3C6.8,66.2,0,73,0,81.4v208c0,8.4,6.8,15.3,15.3,15.3h340.3c8.4,0,15.3-6.8,15.3-15.3v-208
			C370.9,73,364,66.2,355.6,66.2z M15.3,78.2h340.3c1.4,0,2.7,0.9,3.1,2.3L185.4,188.7L12.2,80.5C12.6,79.1,13.8,78.2,15.3,78.2z
			 M12,94.2L136.6,172L12,270.9V94.2z M358.9,289.4c0,1.8-1.5,3.3-3.3,3.3H15.3c-1.8,0-3.3-1.5-3.3-3.3v-3.2l135.4-107l34.8,21.8
			c2,1.2,4.4,1.2,6.4,0l34.8-21.8l135.4,107V289.4z M358.9,270.9l-125-98.6l125-77.4V270.9z"/>
	</g>
</g>
</svg>
