<svg xmlns="http://www.w3.org/2000/svg" xmlns:xlink="http://www.w3.org/1999/xlink" width="353" height="353" viewBox="0 0 353 353">
  <defs>
    <linearGradient id="linear-gradient" x1="0.5" y1="1" x2="0.5" gradientUnits="objectBoundingBox">
      <stop offset="0" stop-color="gray" stop-opacity="0.251"/>
      <stop offset="0.54" stop-color="gray" stop-opacity="0.122"/>
      <stop offset="1" stop-color="gray" stop-opacity="0.102"/>
    </linearGradient>
    <linearGradient id="linear-gradient-3" x1="0.5" y1="1" x2="0.5" y2="0" xlink:href="#linear-gradient"/>
  </defs>
  <g id="Group_37" data-name="Group 37" transform="translate(-556 -1506)">
    <circle id="Ellipse_44" data-name="Ellipse 44" cx="176.5" cy="176.5" r="176.5" transform="translate(556 1506)" fill="#3b6068" opacity="0.2"/>
    <g id="Group_31" data-name="Group 31" transform="translate(448.577 1503.72)">
      <g id="Group_34" data-name="Group 34" transform="translate(159.281 96.28)">
        <path id="Path_138" data-name="Path 138" d="M598.3,366.524H573.241a8.355,8.355,0,0,0,.874-3.733V248.671a8.391,8.391,0,0,0-8.391-8.391h-194a8.391,8.391,0,0,0-8.394,8.391V362.795a8.356,8.356,0,0,0,.874,3.733H338.26a2.219,2.219,0,0,0-2.22,2.22v1.79a12.412,12.412,0,0,0,12.412,12.4H588.107a12.412,12.412,0,0,0,12.412-12.412v-1.79a2.219,2.219,0,0,0-2.219-2.212Zm-154.427,7.1-2.138-2.438h53.331l-2.38,2.442Z" transform="translate(-336.04 -240.28)" fill="url(#linear-gradient)"/>
        <rect id="Rectangle_33" data-name="Rectangle 33" width="206.007" height="136.941" rx="5" transform="translate(29.673 1.615)" fill="#535461"/>
        <rect id="Rectangle_34" data-name="Rectangle 34" width="196.898" height="104.521" transform="translate(34.007 20.264)" fill="#fff"/>
        <g id="Group_33" data-name="Group 33" transform="translate(33.921 20.065)">
          <rect id="Rectangle_15" data-name="Rectangle 15" width="196.826" height="104.528" transform="translate(0.158 0.389)" fill="#ededf4"/>
          <rect id="Rectangle_40" data-name="Rectangle 40" width="196.988" height="5.461" fill="#c8cad7"/>
          <circle id="Ellipse_34" data-name="Ellipse 34" cx="1.337" cy="1.337" r="1.337" transform="translate(4.168 1.726)" fill="#ededf4"/>
          <circle id="Ellipse_35" data-name="Ellipse 35" cx="1.337" cy="1.337" r="1.337" transform="translate(8.178 1.726)" fill="#ededf4"/>
          <circle id="Ellipse_36" data-name="Ellipse 36" cx="1.337" cy="1.337" r="1.337" transform="translate(12.189 1.726)" fill="#ededf4"/>
          <rect id="Rectangle_16" data-name="Rectangle 16" width="50.46" height="3.008" transform="translate(7.51 10.247)" fill="#3b6068"/>
          <rect id="Rectangle_17" data-name="Rectangle 17" width="50.46" height="3.008" transform="translate(7.51 98.134)" fill="#3b6068"/>
          <rect id="Rectangle_21" data-name="Rectangle 21" width="92.899" height="50.46" transform="translate(7.51 18.267)" fill="#3b6068" opacity="0.2"/>
          <rect id="Rectangle_22" data-name="Rectangle 22" width="21.721" height="20.05" transform="translate(8.513 73.406)" fill="#3b6068" opacity="0.2"/>
          <rect id="Rectangle_23" data-name="Rectangle 23" width="21.721" height="20.05" transform="translate(78.688 73.406)" fill="#3b6068" opacity="0.2"/>
          <rect id="Rectangle_24" data-name="Rectangle 24" width="21.721" height="20.05" transform="translate(43.099 73.406)" fill="#3b6068" opacity="0.2"/>
          <rect id="Rectangle_25" data-name="Rectangle 25" width="63.937" height="47.061" transform="translate(120.239 32.944)" fill="#3b6068" opacity="0.2"/>
          <rect id="Rectangle_26" data-name="Rectangle 26" width="50.46" height="3.008" transform="translate(126.976 42.495)" fill="#ededf4"/>
          <rect id="Rectangle_27" data-name="Rectangle 27" width="50.46" height="3.008" transform="translate(126.976 48.734)" fill="#ededf4"/>
          <rect id="Rectangle_28" data-name="Rectangle 28" width="50.46" height="3.008" transform="translate(126.976 54.973)" fill="#ededf4"/>
          <rect id="Rectangle_29" data-name="Rectangle 29" width="50.46" height="3.008" transform="translate(126.976 61.208)" fill="#ededf4"/>
          <rect id="Rectangle_30" data-name="Rectangle 30" width="50.46" height="3.008" transform="translate(126.976 67.447)" fill="#ededf4"/>
          <rect id="Rectangle_31" data-name="Rectangle 31" width="48.344" height="8.465" transform="translate(128.035 85.352)" fill="#3b6068"/>
        </g>
        <circle id="Ellipse_39" data-name="Ellipse 39" cx="1.736" cy="1.736" r="1.736" transform="translate(130.722 9.42)" fill="#fff"/>
        <path id="Path_139" data-name="Path 139" d="M503.591,560.73l-6.768,6.939H449.117L443,560.73H345.9a2.169,2.169,0,0,0-2.169,2.169v1.747a12.131,12.131,0,0,0,12.131,12.131H590.082a12.131,12.131,0,0,0,12.131-12.131V562.9a2.169,2.169,0,0,0-2.169-2.169Z" transform="translate(-340.73 -435.73)" fill="#535461"/>
      </g>
      <g id="Group_35" data-name="Group 35" transform="translate(163.927 120.219)">
        <path id="Path_140" data-name="Path 140" d="M438.627,301.65H355.568a7.61,7.61,0,0,0-7.618,7.6V424.321a7.61,7.61,0,0,0,7.618,7.6h83.059a7.61,7.61,0,0,0,7.618-7.6V309.249A7.61,7.61,0,0,0,438.627,301.65Z" transform="translate(-347.95 -301.65)" fill="url(#linear-gradient)"/>
        <rect id="Rectangle_35" data-name="Rectangle 35" width="95.959" height="127.555" rx="5" transform="translate(1.166 1.56)" fill="#535461"/>
        <rect id="Rectangle_36" data-name="Rectangle 36" width="86.207" height="103.425" transform="translate(6.042 13.625)" fill="#ededf4"/>
        <circle id="Ellipse_40" data-name="Ellipse 40" cx="1.17" cy="1.17" r="1.17" transform="translate(47.585 6.241)" fill="#fff"/>
        <circle id="Ellipse_41" data-name="Ellipse 41" cx="3.511" cy="3.511" r="3.511" transform="translate(45.245 119.363)" fill="#fff"/>
        <rect id="Rectangle_41" data-name="Rectangle 41" width="39.481" height="2.353" transform="translate(12.794 18.466)" fill="#3b6068"/>
        <rect id="Rectangle_42" data-name="Rectangle 42" width="39.481" height="2.353" transform="translate(12.794 87.232)" fill="#3b6068"/>
        <rect id="Rectangle_43" data-name="Rectangle 43" width="72.687" height="39.481" transform="translate(12.794 24.741)" fill="#3b6068" opacity="0.2"/>
        <rect id="Rectangle_44" data-name="Rectangle 44" width="16.995" height="15.688" transform="translate(13.578 67.883)" fill="#3b6068" opacity="0.2"/>
        <rect id="Rectangle_45" data-name="Rectangle 45" width="16.995" height="15.688" transform="translate(68.486 67.883)" fill="#3b6068" opacity="0.2"/>
        <rect id="Rectangle_46" data-name="Rectangle 46" width="16.995" height="15.688" transform="translate(40.64 67.883)" fill="#3b6068" opacity="0.2"/>
        <rect id="Rectangle_47" data-name="Rectangle 47" width="72.494" height="21.374" transform="translate(12.987 95.774)" fill="#3b6068" opacity="0.2"/>
        <rect id="Rectangle_48" data-name="Rectangle 48" width="57.213" height="3.41" transform="translate(20.626 106.603)" fill="#ededf4"/>
        <rect id="Rectangle_49" data-name="Rectangle 49" width="57.213" height="3.41" transform="translate(20.626 113.676)" fill="#ededf4"/>
      </g>
      <g id="Group_36" data-name="Group 36" transform="translate(144.423 159.226)">
        <path id="Path_141" data-name="Path 141" d="M344.821,401.65H302.174a4.217,4.217,0,0,0-4.224,4.209v93.392a4.217,4.217,0,0,0,4.224,4.209h42.647a4.217,4.217,0,0,0,4.225-4.209V405.859A4.217,4.217,0,0,0,344.821,401.65Z" transform="translate(-297.95 -401.65)" fill="url(#linear-gradient-3)"/>
        <rect id="Rectangle_37" data-name="Rectangle 37" width="50.32" height="100.64" rx="5" transform="translate(0.409 0.78)" fill="#535461"/>
        <rect id="Rectangle_38" data-name="Rectangle 38" width="42.908" height="81.916" transform="translate(4.31 10.142)" fill="#ededf4"/>
        <circle id="Ellipse_42" data-name="Ellipse 42" cx="0.39" cy="0.39" r="0.39" transform="translate(20.085 5.071)" fill="#fff"/>
        <rect id="Rectangle_39" data-name="Rectangle 39" width="8.582" height="0.78" rx="0.39" transform="translate(22.425 5.071)" fill="#fff"/>
        <circle id="Ellipse_43" data-name="Ellipse 43" cx="2.731" cy="2.731" r="2.731" transform="translate(23.033 93.228)" fill="#fff"/>
        <rect id="Rectangle_50" data-name="Rectangle 50" width="34.244" height="1.223" transform="translate(8.475 14.983)" fill="#3b6068"/>
        <rect id="Rectangle_52" data-name="Rectangle 52" width="34.244" height="19.568" transform="translate(8.475 19.875)" fill="#3b6068" opacity="0.2"/>
        <rect id="Rectangle_53" data-name="Rectangle 53" width="34.939" height="32.461" transform="translate(8.211 43.698)" fill="#3b6068" opacity="0.2"/>
        <rect id="Rectangle_54" data-name="Rectangle 54" width="34.939" height="12.177" transform="translate(8.211 79.976)" fill="#3b6068" opacity="0.2"/>
      </g>
    </g>
  </g>
</svg>
