<svg id="Layer_1" data-name="Layer 1" xmlns="http://www.w3.org/2000/svg" viewBox="0 0 513 513"><defs><style>.cls-1{fill:#fff;stroke:#000;stroke-miterlimit:10;}</style></defs><title>research</title><path class="cls-1" d="M505.43,344.15,428.48,267.2a166.57,166.57,0,0,0,6.67-192.14,7.5,7.5,0,0,0-12.53,8.25c39.24,59.67,31,139.7-19.57,190.28-59.07,59.08-155.19,59.08-214.26,0s-59.07-155.21,0-214.29S344,.23,403,59.29l.41.41a7.5,7.5,0,0,0,10.65-10.57l-.43-.43c-64.93-64.93-170.55-64.93-235.48,0q-3,3-5.92,6.23H7.5A7.5,7.5,0,0,0,0,62.43V95.6a7.5,7.5,0,1,0,15,0V69.93H160.23a165.28,165.28,0,0,0-14.79,25.24H52a7.5,7.5,0,0,0,0,15h87.23a167,167,0,0,0-5.38,18.33H52a7.5,7.5,0,0,0,0,15h79.08a165.88,165.88,0,0,0-1.51,18.34H52a7.5,7.5,0,0,0,0,15h77.83a166.61,166.61,0,0,0,16.79,63.35H134a7.5,7.5,0,0,0-7.5,7.5v222a7.5,7.5,0,0,0,7.5,7.51h60a7.5,7.5,0,0,0,7.5-7.51V303.62a164.89,164.89,0,0,0,21,12.3v153.8a7.5,7.5,0,0,0,7.5,7.51h60a7.5,7.5,0,0,0,7.5-7.51V332.88A170.89,170.89,0,0,0,315,331.8V447.66a7.5,7.5,0,1,0,15,0V329.39A165.36,165.36,0,0,0,396.66,299L473.59,376a22.51,22.51,0,0,0,31.84-31.82ZM186.5,462.22h-45v-207H155a166.45,166.45,0,0,0,23.16,29q4.06,4.05,8.32,7.76Zm51,0V322.37a166.93,166.93,0,0,0,45,10V462.22Zm257.31-96.86a7.5,7.5,0,0,1-10.61,0l-76-76c1.84-1.68,3.65-3.4,5.43-5.18s3.5-3.58,5.18-5.43l76,76A7.5,7.5,0,0,1,494.82,365.36Z" transform="translate(0.5 0.5)"/><path class="cls-1" d="M322.51,472.5A7.5,7.5,0,0,0,315,480v17H15V128.11a7.5,7.5,0,0,0-15,0V504.5A7.5,7.5,0,0,0,7.5,512h315a7.5,7.5,0,0,0,7.5-7.5V480A7.5,7.5,0,0,0,322.51,472.5Z" transform="translate(0.5 0.5)"/><path class="cls-1" d="M32.5,307.7v162a7.5,7.5,0,0,0,7.5,7.5h60a7.5,7.5,0,0,0,7.5-7.5v-162a7.49,7.49,0,0,0-7.5-7.5H40A7.5,7.5,0,0,0,32.5,307.7Zm15,7.5h45v147h-45Z" transform="translate(0.5 0.5)"/><path class="cls-1" d="M108.08,210.18a7.5,7.5,0,0,0,0-15H52a7.5,7.5,0,0,0,0,15Z" transform="translate(0.5 0.5)"/><path class="cls-1" d="M295.92,30A136.52,136.52,0,0,0,199.4,263a136.51,136.51,0,0,0,193-193.07A135.62,135.62,0,0,0,295.92,30Zm85.92,222.38a121.69,121.69,0,1,1,35.52-85.92A120.66,120.66,0,0,1,381.84,252.37Z" transform="translate(0.5 0.5)"/></svg>