<svg xmlns="http://www.w3.org/2000/svg" width="353" height="353" viewBox="0 0 353 353">
  <g id="Group_48" data-name="Group 48" transform="translate(-987 -1514)">
    <circle id="Ellipse_45" data-name="Ellipse 45" cx="176.5" cy="176.5" r="176.5" transform="translate(987 1514)" fill="#3b6068" opacity="0.2"/>
    <g id="Group_47" data-name="Group 47" transform="translate(0)">
      <g id="Group_46" data-name="Group 46" transform="translate(1101 1698.106)">
        <path id="Path_195" data-name="Path 195" d="M585,276.09H710.881V401.962H585Z" transform="translate(-585 -276.09)" fill="#f7df1e"/>
        <path id="Path_196" data-name="Path 196" d="M654.21,443.551l9.634-5.831c1.861,3.3,3.549,6.084,7.605,6.084,3.889,0,6.338-1.521,6.338-7.433V396.149h11.829v40.385c0,12.25-7.175,17.827-17.66,17.827-9.461,0-14.953-4.9-17.741-10.815m41.825-1.268,9.629-5.577c2.535,4.142,5.831,7.175,11.662,7.175,4.9,0,8.026-2.449,8.026-5.831,0-4.056-3.21-5.491-8.61-7.859l-2.956-1.268c-8.533-3.63-14.2-8.194-14.2-17.827,0-8.873,6.759-15.632,17.32-15.632,7.519,0,12.915,2.621,16.813,9.461l-9.208,5.917c-2.028-3.635-4.224-5.07-7.605-5.07-3.463,0-5.663,2.2-5.663,5.07,0,3.549,2.2,4.984,7.266,7.175l2.956,1.268c10.045,4.3,15.718,8.7,15.718,18.588,0,10.648-8.366,16.478-19.611,16.478-11,0-18.081-5.262-21.525-12.083" transform="translate(-621.105 -338.362)"/>
      </g>
      <g id="Group_44" data-name="Group 44" transform="translate(1175.364 1557.034)">
        <path id="Path_203" data-name="Path 203" d="M952.157,463.479l-3.619.24-1.908.128v-4.611l2.505-.453,1.551-.283s4.8-14.195,9.4-11.615S952.157,463.479,952.157,463.479Z" transform="translate(-920.831 -363.696)" fill="#714b4f"/>
        <path id="Path_221" data-name="Path 221" d="M987.39,337.49l-8.123,90.988-36.512,10.128-36.411-10.128L898.23,337.49Z" transform="translate(-898.23 -312.758)" fill="#e44d26"/>
        <path id="Path_222" data-name="Path 222" d="M981.86,437.385l29.5-8.177,6.929-77.758H981.86Z" transform="translate(-937.283 -319.276)" fill="#f16529"/>
        <path id="Path_223" data-name="Path 223" d="M941.556,383.552h15.788V372.39H929.36l.266,3,2.745,30.756h24.978V394.98h-14.77Zm2.537,28.171H932.9l1.562,17.526,22.835,6.364h.053V423.966H957.3l-12.43-3.358Z" transform="translate(-912.767 -329.055)" fill="#ebebeb"/>
        <path id="Path_224" data-name="Path 224" d="M913.8,291.09h5.671v5.6h5.186v-5.6h5.671v16.972h-5.671V302.38h-5.186v5.682H913.8Zm23.986,5.629h-4.995V291.09h15.66v5.629h-4.995v11.343h-5.666V296.719h0Zm13.155-5.629h5.917l3.641,5.965,3.635-5.965h5.917v16.972H964.4V299.65l-3.9,6.034h-.1L956.5,299.65v8.411h-5.554Zm21.929,0h5.671v11.359h8v5.607H972.886V291.09Z" transform="translate(-905.501 -291.09)"/>
        <path id="Path_225" data-name="Path 225" d="M981.79,406.137h13.741l-1.3,14.477-12.446,3.358v11.636l22.883-6.343.165-1.887,2.622-29.386.272-3H981.79v11.162Zm0-22.616v.027h26.961l.224-2.511.533-5.661.266-3H981.79v11.135Z" transform="translate(-937.25 -329.05)" fill="#fff"/>
      </g>
      <g id="Group_45" data-name="Group 45" transform="translate(1062 1557)">
        <path id="Path_229" data-name="Path 229" d="M243.11,406.036l-36.416-10.1L198.58,304.92h89.17l-8.123,91Z" transform="translate(-198.58 -280.174)" fill="#264de4"/>
        <path id="Path_230" data-name="Path 230" d="M329.641,399.647l6.942-77.767H300.14v85.929Z" transform="translate(-255.549 -289.688)" fill="#2965f1"/>
        <path id="Path_231" data-name="Path 231" d="M238.4,369.864l1,11.161h24.983V369.864Zm-2.011-22.594,1.014,11.161h26.976V347.27H236.37Zm27.99,51.586h-.048L251.9,395.5l-.795-8.9H239.878l1.563,17.527,22.866,6.362h.053Z" transform="translate(-219.778 -303.93)" fill="#ebebeb"/>
        <path id="Path_232" data-name="Path 232" d="M246.38,248.56H259.9v5.655h-7.868v5.655H259.9v5.655H246.38Zm16.245,0h13.519v4.918h-7.886v.984h7.868v11.31H262.6v-5.163h7.868v-.983H262.6V248.56Zm16.245,0H292.39v4.918h-7.908v.984h7.868v11.31H278.827v-5.163h7.868v-.983h-7.868V248.56Z" transform="translate(-225.393 -248.56)"/>
        <path id="Path_233" data-name="Path 233" d="M325.966,369.864l2.015-22.594H300v11.161h15.732l-1.014,11.416H300v11.161h13.747L312.43,395.5,300,398.864v11.613l22.884-6.344.167-1.888,2.634-29.391.272-3Z" transform="translate(-255.47 -303.93)" fill="#fff"/>
      </g>
    </g>
  </g>
</svg>
