<svg id="SvgjsSvg1001" width="288" height="288" xmlns="http://www.w3.org/2000/svg" version="1.1" xmlns:xlink="http://www.w3.org/1999/xlink" xmlns:svgjs="http://svgjs.com/svgjs"><defs id="SvgjsDefs1002"></defs><g id="SvgjsG1008" transform="matrix(0.9167,0,0,0.9167,11.994891133117676,11.99534807815553)"><svg xmlns="http://www.w3.org/2000/svg" width="288" height="288" viewBox="0 0 32 32"><g transform="translate(-.5 -43.484)" fill="#000000" class="color000 svgShape"><path fill="#373449" d="m 1.49959,46.4842 30,0 c 0.553,0 1,0.485 1,1.084 l 0,23.832 c 0,0.599 -0.447,1.084 -1,1.084 l -30,0 c -0.552,0 -1,-0.485 -1,-1.084 l 0,-23.832 c 0,-0.598 0.448,-1.084 1,-1.084 z" class="color373449 svgShape"></path><path fill="#f7f7f8" d="m 2.43759,50.4842 28.125,0 c 0.518,0 0.938,0.392 0.938,0.875 l 0,19.25 c 0,0.483 -0.42,0.875 -0.938,0.875 l -28.125,0 c -0.518,0 -0.938,-0.392 -0.938,-0.875 l 0,-19.25 c 0,-0.483 0.42,-0.875 0.938,-0.875 z" class="colorf7f7f8 svgShape"></path><path fill="#ef4c45" d="m 30.49959,48.4842 c 0,0.553 -0.447,1 -1,1 -0.553,0 -1,-0.447 -1,-1 0,-0.553 0.447,-1 1,-1 0.553,0 1,0.447 1,1 z" class="coloref4c45 svgShape"></path><path fill="#eff0f2" d="M27.49959 48.4842c0 .553-.447 1-1 1-.553 0-1-.447-1-1 0-.553.447-1 1-1 .553 0 1 .447 1 1zM24.49959 48.4842c0 .553-.447 1-1 1-.553 0-1-.447-1-1 0-.553.447-1 1-1 .553 0 1 .447 1 1z" class="coloreff0f2 svgShape"></path><rect width="28" height="5" x="2.532" y="51.484" fill="#5bdadd" class="color5bdadd svgShape"></rect><rect width="28" height="5" x="2.532" y="58.484" fill="#5bdadd" class="color5bdadd svgShape"></rect><rect width="28" height="5" x="2.532" y="65.484" fill="#5bdadd" class="color5bdadd svgShape"></rect></g></svg></g></svg>