<svg xmlns="http://www.w3.org/2000/svg" width="140" height="110" viewBox="0 0 140 110"><g transform="translate(-0.5 -46.484)"><path d="M4.875,46.484h131.25A4.481,4.481,0,0,1,140.5,51.07V151.9a4.481,4.481,0,0,1-4.375,4.586H4.875A4.484,4.484,0,0,1,.5,151.9V51.07a4.487,4.487,0,0,1,4.375-4.586Z" transform="translate(0 0)" fill="#373449"/><path d="M5.6,50.484H128.681a3.914,3.914,0,0,1,4.1,3.689v81.15a3.914,3.914,0,0,1-4.1,3.689H5.6a3.914,3.914,0,0,1-4.1-3.689V54.173a3.914,3.914,0,0,1,4.1-3.689Z" transform="translate(3.359 13.257)" fill="#f7f7f8"/><path d="M37.218,51.7a4.362,4.362,0,1,1-4.359-4.216A4.285,4.285,0,0,1,37.218,51.7Z" transform="translate(94.563 3.216)" fill="#ef4c45"/><path d="M44.3,51.7a4.362,4.362,0,1,1-4.359-4.216A4.285,4.285,0,0,1,44.3,51.7Zm-13.078,0a4.362,4.362,0,1,1-4.359-4.216A4.285,4.285,0,0,1,31.218,51.7Z" transform="translate(74.314 3.216)" fill="#eff0f2"/><rect width="122.563" height="21.078" transform="translate(9.36 67.655)" fill="#5bdadd"/><rect width="122.563" height="21.078" transform="translate(9.36 97.296)" fill="#5bdadd"/><rect width="122.563" height="21.078" transform="translate(9.36 126.974)" fill="#5bdadd"/></g></svg>