<svg xmlns="http://www.w3.org/2000/svg" width="353" height="353" viewBox="0 0 353 353">
  <g id="Group_30" data-name="Group 30" transform="translate(-50 -1506)">
    <circle id="Ellipse_37" data-name="Ellipse 37" cx="176.5" cy="176.5" r="176.5" transform="translate(50 1506)" fill="#3b6068" opacity="0.2"/>
    <g id="Group_29" data-name="Group 29" transform="translate(-132.21 1427.18)">
      <ellipse id="Ellipse_30" data-name="Ellipse 30" cx="67.452" cy="4.002" rx="67.452" ry="4.002" transform="translate(296.038 360.996)" fill="#3b6068" opacity="0.1"/>
      <path id="Path_126" data-name="Path 126" d="M564.833,694.812v2.415H493.38V695.26A23.487,23.487,0,0,0,495,651.88h69.366a23.5,23.5,0,0,0,.471,42.932Z" transform="translate(-170.335 -336.849)" fill="#c8cad7"/>
      <path id="Path_127" data-name="Path 127" d="M567.036,651.89a23.525,23.525,0,0,0-12.985,15.574h-43.4A23.525,23.525,0,0,0,497.67,651.89Z" transform="translate(-173.008 -336.855)" opacity="0.1"/>
      <path id="Path_128" data-name="Path 128" d="M276.21,619.22v13.566c0,7.491,5.483,13.566,12.247,13.566H498.725c6.764,0,12.247-6.074,12.247-13.566V619.22Z" transform="translate(-35 -316.496)" fill="#c8cad7"/>
      <path id="Path_129" data-name="Path 129" d="M564.833,761.7v2.415H493.38v-1.967a23.436,23.436,0,0,0,5.509-2.932h61.573a23.538,23.538,0,0,0,4.371,2.483Z" transform="translate(-170.335 -403.741)" opacity="0.1"/>
      <rect id="Rectangle_14" data-name="Rectangle 14" width="118.7" height="7.16" rx="3.58" transform="translate(299.429 356.233)" fill="#c8cad7"/>
      <path id="Path_130" data-name="Path 130" d="M510.972,204.467a12.247,12.247,0,0,0-12.247-12.247H288.457a12.247,12.247,0,0,0-12.247,12.247V355.762H510.972Z" transform="translate(-35 -50.4)" fill="#474157"/>
      <g id="Group_32" data-name="Group 32">
        <path id="Rectangle_15" data-name="Rectangle 15" d="M6,0H215.95a6,6,0,0,1,6,6V126.063a16,16,0,0,1-16,16H16a16,16,0,0,1-16-16V6A6,6,0,0,1,6,0Z" transform="translate(247.616 153.502)" fill="#ededf4"/>
        <circle id="Ellipse_32" data-name="Ellipse 32" cx="2.826" cy="2.826" r="2.826" transform="translate(355.765 144.835)" fill="#fff"/>
        <circle id="Ellipse_33" data-name="Ellipse 33" cx="6.971" cy="6.971" r="6.971" transform="translate(351.62 309.884)" fill="#fff"/>
        <path id="Path_131" data-name="Path 131" d="M515.16,229.249H293.21a6.029,6.029,0,0,1,6.029-6.029H509.13A6.029,6.029,0,0,1,515.16,229.249Z" transform="translate(-45.594 -69.719)" fill="#c8cad7"/>
        <circle id="Ellipse_34" data-name="Ellipse 34" cx="1.507" cy="1.507" r="1.507" transform="translate(252.138 155.009)" fill="#ededf4"/>
        <circle id="Ellipse_35" data-name="Ellipse 35" cx="1.507" cy="1.507" r="1.507" transform="translate(256.66 155.009)" fill="#ededf4"/>
        <circle id="Ellipse_36" data-name="Ellipse 36" cx="1.507" cy="1.507" r="1.507" transform="translate(261.182 155.009)" fill="#ededf4"/>
        <rect id="Rectangle_16" data-name="Rectangle 16" width="56.9" height="3.391" transform="translate(255.906 164.618)" fill="#3b6068"/>
        <rect id="Rectangle_17" data-name="Rectangle 17" width="56.9" height="3.391" transform="translate(255.906 263.723)" fill="#3b6068"/>
        <rect id="Rectangle_18" data-name="Rectangle 18" width="105.511" height="3.391" transform="translate(255.906 271.259)" fill="#3b6068" opacity="0.2"/>
        <rect id="Rectangle_19" data-name="Rectangle 19" width="105.511" height="3.391" transform="translate(255.906 276.162)" fill="#3b6068" opacity="0.2"/>
        <rect id="Rectangle_20" data-name="Rectangle 20" width="105.511" height="3.391" transform="translate(255.906 281.06)" fill="#3b6068" opacity="0.2"/>
        <rect id="Rectangle_21" data-name="Rectangle 21" width="104.757" height="56.9" transform="translate(255.906 173.662)" fill="#3b6068" opacity="0.2"/>
        <rect id="Rectangle_22" data-name="Rectangle 22" width="24.494" height="22.609" transform="translate(257.037 235.838)" fill="#3b6068" opacity="0.2"/>
        <rect id="Rectangle_23" data-name="Rectangle 23" width="24.494" height="22.609" transform="translate(336.17 235.838)" fill="#3b6068" opacity="0.2"/>
        <rect id="Rectangle_24" data-name="Rectangle 24" width="24.494" height="22.609" transform="translate(296.038 235.838)" fill="#3b6068" opacity="0.2"/>
        <rect id="Rectangle_25" data-name="Rectangle 25" width="72.098" height="53.068" transform="translate(383.024 190.212)" fill="#3b6068" opacity="0.2"/>
        <rect id="Rectangle_26" data-name="Rectangle 26" width="56.9" height="3.391" transform="translate(390.621 200.981)" fill="#ededf4"/>
        <rect id="Rectangle_27" data-name="Rectangle 27" width="56.9" height="3.391" transform="translate(390.621 208.017)" fill="#ededf4"/>
        <rect id="Rectangle_28" data-name="Rectangle 28" width="56.9" height="3.391" transform="translate(390.621 215.052)" fill="#ededf4"/>
        <rect id="Rectangle_29" data-name="Rectangle 29" width="56.9" height="3.391" transform="translate(390.621 222.084)" fill="#ededf4"/>
        <rect id="Rectangle_30" data-name="Rectangle 30" width="56.9" height="3.391" transform="translate(390.621 229.119)" fill="#ededf4"/>
        <rect id="Rectangle_31" data-name="Rectangle 31" width="54.515" height="9.545" transform="translate(391.815 249.309)" fill="#3b6068"/>
        <rect id="Rectangle_32" data-name="Rectangle 32" width="36.556" height="6.402" transform="translate(388.903 281.113)" fill="#3b6068"/>
      </g>
    </g>
  </g>
</svg>
