<svg xmlns="http://www.w3.org/2000/svg" width="32" height="32" viewBox="0 0 32 32"><g transform="translate(-746 -1022.362)"><path fill="#5b647d" d="m 747,1025.362 30,0 c 0.553,0 1,0.485 1,1.084 l 0,23.832 c 0,0.599 -0.447,1.084 -1,1.084 l -30,0 c -0.553,0 -1,-0.485 -1,-1.084 l 0,-23.832 c 0,-0.598 0.447,-1.084 1,-1.084 z"/><path fill="#f7f7f8" d="m 747.937,1029.362 28.125,0 c 0.518,0 0.938,0.392 0.938,0.875 l 0,19.25 c 0,0.483 -0.42,0.875 -0.938,0.875 l -28.125,0 c -0.518,0 -0.938,-0.392 -0.938,-0.875 l 0,-19.25 c 10e-4,-0.483 0.421,-0.875 0.938,-0.875 z"/><path fill="#eff0f2" d="M776 1027.362c0 .553-.447 1-1 1-.553 0-1-.447-1-1 0-.553.447-1 1-1 .553 0 1 .447 1 1zM773 1027.362c0 .553-.447 1-1 1-.553 0-1-.447-1-1 0-.553.447-1 1-1 .553 0 1 .447 1 1zM770 1027.362c0 .553-.447 1-1 1-.553 0-1-.447-1-1 0-.553.447-1 1-1 .553 0 1 .447 1 1z"/><rect width="28" height="3" x="748" y="1030.362" fill="#dee0e5"/><rect width="6" height="4" x="748" y="1045.362" fill="#dee0e5"/><rect width="6" height="4" x="755" y="1045.362" fill="#dee0e5"/><rect width="6" height="4" x="762" y="1045.362" fill="#dee0e5"/><rect width="7" height="4" x="769" y="1045.362" fill="#dee0e5"/><rect width="4" height="10" x="748" y="1034.362" fill="#dee0e5"/><rect width="4" height="10" x="772" y="1034.362" fill="#dee0e5"/><rect width="18" height="10" x="753" y="1034.362" fill="#dee0e5"/></g></svg>